<svg xmlns="http://www.w3.org/2000/svg" viewBox="0 0 24 24" fill="currentColor">
  <path d="M6.5 12C5.11 12 4 13.11 4 14.5S5.11 17 6.5 17 9 15.89 9 14.5 7.89 12 6.5 12zm11 0c-1.39 0-2.5 1.11-2.5 2.5s1.11 2.5 2.5 2.5 2.5-1.11 2.5-2.5-1.11-2.5-2.5-2.5zm-5.5 0c-1.39 0-2.5 1.11-2.5 2.5S10.61 17 12 17s2.5-1.11 2.5-2.5S13.39 12 12 12z"/>
  <path d="M7.5 18c-1.39 0-2.5 1.11-2.5 2.5S6.11 23 7.5 23 10 21.89 10 20.5 8.89 18 7.5 18zm9 0c-1.39 0-2.5 1.11-2.5 2.5s1.11 2.5 2.5 2.5 2.5-1.11 2.5-2.5-1.11-2.5-2.5-2.5zm-4.5 0c-1.39 0-2.5 1.11-2.5 2.5S10.61 23 12 23s2.5-1.11 2.5-2.5S13.39 18 12 18z"/>
  <path d="M19.35 6.04C18.67 2.59 15.64 0 12 0 9.11 0 6.6 1.64 5.35 4.04 2.34 4.36 0 6.91 0 10c0 1.1.9 2 2 2h20c1.1 0 2-.9 2-2 0-2.64-2.05-4.78-4.65-4.96z"/>
</svg>

