<svg xmlns="http://www.w3.org/2000/svg" viewBox="0 0 24 24" fill="currentColor">
  <path d="M6 14c-2.21 0-4 1.79-4 4s1.79 4 4 4 4-1.79 4-4-1.79-4-4-4zm12 0c-2.21 0-4 1.79-4 4s1.79 4 4 4 4-1.79 4-4-1.79-4-4-4zm-6 0c-2.21 0-4 1.79-4 4s1.79 4 4 4 4-1.79 4-4-1.79-4-4-4zm6-5.5c0-3.04-2.46-5.5-5.5-5.5S7 5.46 7 8.5c0 .75.15 1.46.42 2.11C4.1 10.61 1 13.71 1 17.5 1 20.54 3.46 23 6.5 23h11c3.04 0 5.5-2.46 5.5-5.5 0-2.26-1.36-4.2-3.31-5.06C19.85 11.96 20 11.25 20 10.5c0-3.04-2.46-5.5-5.5-5.5z"/>
  <path d="M2 11h1v2H2zm0 4h1v2H2zm2-2h1v2H4zm2 0h1v2H6zm2 0h1v2H8zm2 0h1v2h-1zm2 0h1v2h-1zm2 0h1v2h-1zm2 0h1v2h-1zm2 0h1v2h-1z"/>
</svg>

